Coordinates
version=1
nRows=24
nColumns=34
inDegrees=no

Units are S.I. units (second, meters, Newtons, ...)
If the header above contains a line with 'inDegrees', this indicates whether rotational values are in degrees (yes) or radians (no).

endheader
time	pelvis_tilt	pelvis_list	pelvis_rotation	pelvis_tx	pelvis_ty	pelvis_tz	hip_flexion_r	hip_adduction_r	hip_rotation_r	knee_angle_r	ankle_angle_r	subtalar_angle_r	mtp_angle_r	hip_flexion_l	hip_adduction_l	hip_rotation_l	knee_angle_l	ankle_angle_l	subtalar_angle_l	mtp_angle_l	lumbar_extension	lumbar_bending	lumbar_rotation	arm_flex_r	arm_add_r	arm_rot_r	elbow_flex_r	pro_sup_r	arm_flex_l	arm_add_l	arm_rot_l	elbow_flex_l	pro_sup_l
0.3985	-0.191539	-0.114581	-0.0427995	-0.0148807	0.988649	0.0303108	0.630616	0.0683093	-0.245337	0.429168	-0.019763	0.135417	0.0504788	0.053441	-0.301448	-0.282103	0.798876	-0.332454	0.0339927	0.117441	-0.0903436	0.0792294	-0.20322	-0.483955	-0.275267	-0.306073	1.58436	0.811125	0.0383027	-0.14473	0.173089	1.90341	0.813585
0.399499	-0.190624	-0.11472	-0.0429788	-0.0147146	0.988199	0.0303805	0.629889	0.0685111	-0.244218	0.432427	-0.0178029	0.133979	0.0493873	0.0534183	-0.302367	-0.281607	0.803792	-0.331338	0.0320949	0.114577	-0.0912036	0.0798128	-0.20223	-0.483496	-0.275594	-0.306889	1.58451	0.811213	0.0372347	-0.144854	0.173218	1.90128	0.813566
0.400497	-0.189693	-0.114864	-0.0431581	-0.0145495	0.987741	0.0304494	0.629151	0.0687114	-0.243085	0.435765	-0.0157764	0.132507	0.0482851	0.0534053	-0.303286	-0.281091	0.808747	-0.330172	0.0301742	0.111756	-0.0920874	0.0804009	-0.201223	-0.483	-0.275925	-0.307684	1.58464	0.811303	0.0361721	-0.144966	0.173326	1.89911	0.81355
0.401496	-0.188746	-0.115011	-0.0433373	-0.0143856	0.987274	0.0305173	0.628403	0.0689102	-0.241938	0.43918	-0.0136836	0.131001	0.0471725	0.0534022	-0.304207	-0.280556	0.813742	-0.328958	0.0282306	0.108981	-0.0929949	0.0809938	-0.200197	-0.482468	-0.276262	-0.308459	1.58475	0.811395	0.0351148	-0.145064	0.173411	1.89691	0.813539
0.402495	-0.187783	-0.115163	-0.0435164	-0.0142229	0.986799	0.0305843	0.627645	0.0691077	-0.240778	0.442671	-0.0115246	0.129464	0.0460497	0.0534097	-0.305129	-0.280002	0.818775	-0.327695	0.0262644	0.10625	-0.0939258	0.0815916	-0.199154	-0.481899	-0.276605	-0.309214	1.58484	0.811488	0.034063	-0.145151	0.173474	1.89467	0.813531
0.403494	-0.186805	-0.115318	-0.0436953	-0.0140613	0.986315	0.0306504	0.626876	0.0693041	-0.239606	0.446235	-0.00929953	0.127897	0.0449173	0.0534282	-0.306052	-0.279427	0.823846	-0.326385	0.0242757	0.103564	-0.09488	0.0821945	-0.198093	-0.481293	-0.276953	-0.309948	1.5849	0.811583	0.0330167	-0.145225	0.173515	1.8924	0.813528
0.404492	-0.185811	-0.115478	-0.043874	-0.0139011	0.985823	0.0307155	0.626098	0.0694995	-0.238421	0.449871	-0.00700852	0.1263	0.0437756	0.053458	-0.306977	-0.278834	0.828953	-0.325029	0.0222648	0.100923	-0.0958572	0.0828024	-0.197015	-0.48065	-0.277306	-0.31066	1.58494	0.811679	0.0319761	-0.145287	0.173533	1.89009	0.813528
0.405491	-0.184803	-0.115642	-0.0440525	-0.0137422	0.985322	0.0307797	0.625308	0.0696942	-0.237225	0.453578	-0.00465183	0.124674	0.0426251	0.0534996	-0.307903	-0.278221	0.834098	-0.323628	0.0202318	0.0983271	-0.0968572	0.0834155	-0.19592	-0.479968	-0.277665	-0.311352	1.58495	0.811776	0.0309411	-0.145337	0.173529	1.88775	0.813533
0.40649	-0.183781	-0.11581	-0.0442307	-0.0135848	0.984813	0.0308428	0.624509	0.0698881	-0.236018	0.457354	-0.00222972	0.123022	0.0414661	0.0535535	-0.308829	-0.277589	0.839279	-0.322182	0.018177	0.0957756	-0.0978798	0.0840339	-0.194807	-0.479249	-0.278028	-0.312021	1.58495	0.811875	0.0299119	-0.145374	0.173503	1.88538	0.813541
0.407489	-0.182744	-0.115983	-0.0444085	-0.0134288	0.984295	0.030905	0.6237	0.0700815	-0.2348	0.461197	0.000257479	0.121344	0.0402992	0.0536201	-0.309757	-0.276938	0.844495	-0.320692	0.0161006	0.0932688	-0.0989248	0.0846575	-0.193678	-0.47849	-0.278398	-0.312669	1.58491	0.811975	0.0288884	-0.1454	0.173454	1.88297	0.813553
0.408487	-0.181694	-0.116159	-0.044586	-0.0132744	0.983769	0.0309662	0.62288	0.0702745	-0.233572	0.465106	0.00280941	0.119642	0.039125	0.0536999	-0.310686	-0.276269	0.849745	-0.319159	0.0140028	0.0908065	-0.099992	0.0852866	-0.192533	-0.477693	-0.278772	-0.313296	1.58486	0.812076	0.0278708	-0.145413	0.173384	1.88053	0.813569
0.409486	-0.180631	-0.11634	-0.044763	-0.0131216	0.983234	0.0310264	0.62205	0.0704672	-0.232334	0.469078	0.00542567	0.117916	0.0379438	0.0537931	-0.311616	-0.27558	0.85503	-0.317585	0.0118839	0.0883883	-0.101081	0.0859212	-0.191371	-0.476857	-0.279152	-0.3139	1.58478	0.812179	0.0268591	-0.145414	0.17329	1.87806	0.813588
0.410485	-0.179554	-0.116525	-0.0449396	-0.0129704	0.982691	0.0310855	0.621211	0.0706598	-0.231087	0.473113	0.0081058	0.116168	0.0367564	0.0539004	-0.312546	-0.274872	0.860349	-0.315969	0.00974417	0.0860141	-0.102192	0.0865613	-0.190193	-0.475981	-0.279537	-0.314481	1.58467	0.812282	0.0258533	-0.145404	0.173175	1.87556	0.813611
0.411484	-0.178465	-0.116714	-0.0451156	-0.0128209	0.982139	0.0311437	0.620361	0.0708522	-0.229832	0.477207	0.0108493	0.114399	0.0355632	0.0540221	-0.313478	-0.274146	0.8657	-0.314313	0.0075838	0.0836836	-0.103325	0.087207	-0.188999	-0.475065	-0.279927	-0.31504	1.58454	0.812387	0.0248535	-0.145382	0.173037	1.87303	0.813638
0.412482	-0.177364	-0.116907	-0.0452911	-0.0126733	0.981579	0.0312007	0.619502	0.0710447	-0.228568	0.481361	0.0136556	0.112611	0.0343648	0.0541586	-0.31441	-0.273402	0.871084	-0.312617	0.00540309	0.0813964	-0.104479	0.0878584	-0.187789	-0.474109	-0.280322	-0.315577	1.58439	0.812492	0.0238598	-0.145348	0.172877	1.87046	0.813668
0.413481	-0.176251	-0.117104	-0.0454661	-0.0125274	0.981011	0.0312567	0.618632	0.0712373	-0.227297	0.485571	0.016524	0.110805	0.033162	0.0543105	-0.315343	-0.272639	0.876499	-0.310883	0.00320233	0.079152	-0.105654	0.0885155	-0.186564	-0.473112	-0.280723	-0.31609	1.58421	0.812599	0.0228721	-0.145303	0.172695	1.86787	0.813702
0.41448	-0.175127	-0.117305	-0.0456405	-0.0123835	0.980434	0.0313116	0.617753	0.0714301	-0.226019	0.489837	0.019454	0.108981	0.0319553	0.054478	-0.316276	-0.271858	0.881946	-0.309111	0.000981818	0.0769502	-0.10685	0.0891785	-0.185323	-0.472074	-0.281128	-0.316581	1.584	0.812707	0.0218904	-0.145247	0.172491	1.86524	0.81374
0.415479	-0.173991	-0.117511	-0.0458142	-0.0122415	0.97985	0.0313653	0.616863	0.0716231	-0.224734	0.494156	0.0224448	0.107142	0.0307453	0.0546616	-0.317209	-0.271059	0.887422	-0.307302	-0.00125815	0.0747905	-0.108067	0.0898472	-0.184067	-0.470995	-0.281539	-0.317048	1.58377	0.812815	0.0209149	-0.145179	0.172264	1.86259	0.81378
0.416477	-0.172845	-0.117721	-0.0459873	-0.0121016	0.979257	0.031418	0.615964	0.0718165	-0.223443	0.498527	0.0254957	0.105289	0.0295329	0.0548618	-0.318143	-0.270242	0.892928	-0.305457	-0.00351726	0.0726723	-0.109304	0.0905218	-0.182796	-0.469874	-0.281954	-0.317492	1.58351	0.812925	0.0199454	-0.145099	0.172016	1.8599	0.813825
0.417476	-0.171688	-0.117934	-0.0461598	-0.0119638	0.978657	0.0314696	0.615055	0.0720102	-0.222147	0.502948	0.0286059	0.103423	0.0283185	0.0550789	-0.319077	-0.269407	0.898463	-0.303577	-0.00579518	0.0705952	-0.110562	0.0912023	-0.18151	-0.468712	-0.282374	-0.317913	1.58323	0.813036	0.0189821	-0.145009	0.171746	1.85719	0.813872
0.418475	-0.170521	-0.118152	-0.0463316	-0.0118281	0.978049	0.03152	0.614136	0.0722044	-0.220846	0.507417	0.0317744	0.101544	0.027103	0.0553135	-0.320011	-0.268555	0.904026	-0.301663	-0.00809157	0.0685587	-0.111839	0.0918887	-0.18021	-0.467507	-0.282799	-0.318309	1.58293	0.813148	0.0180248	-0.144908	0.171453	1.85445	0.813923
0.419474	-0.169344	-0.118374	-0.0465026	-0.0116947	0.977433	0.0315692	0.613207	0.072399	-0.21954	0.511933	0.0350004	0.0996554	0.025887	0.0555658	-0.320946	-0.267685	0.909617	-0.299714	-0.0104061	0.0665622	-0.113137	0.0925811	-0.178894	-0.46626	-0.283229	-0.318682	1.58259	0.813261	0.0170736	-0.144796	0.171139	1.85168	0.813977
0.420472	-0.168158	-0.1186	-0.046673	-0.0115636	0.97681	0.0316174	0.612269	0.0725941	-0.218231	0.516493	0.038283	0.0977573	0.0246714	0.0558363	-0.32188	-0.266798	0.915234	-0.297734	-0.0127384	0.064605	-0.114454	0.0932795	-0.177565	-0.46497	-0.283663	-0.319032	1.58224	0.813375	0.0161285	-0.144673	0.170803	1.84889	0.814034
0.421471	-0.166962	-0.11883	-0.0468427	-0.0114348	0.97618	0.0316643	0.611321	0.0727896	-0.216919	0.521097	0.0416212	0.0958512	0.0234568	0.0561254	-0.322813	-0.265894	0.920878	-0.295721	-0.0150881	0.0626867	-0.115791	0.0939838	-0.176222	-0.463637	-0.284102	-0.319357	1.58185	0.81349	0.0151894	-0.14454	0.170445	1.84607	0.814094
